solid ASCII
  facet normal -5.000000e-01 -8.660254e-01 1.652546e-15
    outer loop
      vertex   -2.309401e+01 1.692402e-14 0.000000e+00
      vertex   1.154701e+01 -2.000000e+01 0.000000e+00
      vertex   -2.309401e+01 1.845058e-14 8.000000e-01
    endloop
  endfacet
  facet normal -5.000000e-01 -8.660254e-01 0.000000e+00
    outer loop
      vertex   -2.309401e+01 1.845058e-14 8.000000e-01
      vertex   1.154701e+01 -2.000000e+01 0.000000e+00
      vertex   1.154701e+01 -2.000000e+01 8.000000e-01
    endloop
  endfacet
  facet normal -5.000000e-01 8.660254e-01 0.000000e+00
    outer loop
      vertex   1.154701e+01 2.000000e+01 0.000000e+00
      vertex   -2.309401e+01 1.692402e-14 0.000000e+00
      vertex   1.154701e+01 2.000000e+01 8.000000e-01
    endloop
  endfacet
  facet normal -5.000000e-01 8.660254e-01 0.000000e+00
    outer loop
      vertex   1.154701e+01 2.000000e+01 8.000000e-01
      vertex   -2.309401e+01 1.692402e-14 0.000000e+00
      vertex   -2.309401e+01 1.845058e-14 8.000000e-01
    endloop
  endfacet
  facet normal 1.000000e+00 -6.661338e-16 0.000000e+00
    outer loop
      vertex   1.154701e+01 -2.000000e+01 0.000000e+00
      vertex   1.154701e+01 2.000000e+01 0.000000e+00
      vertex   1.154701e+01 -2.000000e+01 8.000000e-01
    endloop
  endfacet
  facet normal 1.000000e+00 -6.661338e-16 0.000000e+00
    outer loop
      vertex   1.154701e+01 -2.000000e+01 8.000000e-01
      vertex   1.154701e+01 2.000000e+01 0.000000e+00
      vertex   1.154701e+01 2.000000e+01 8.000000e-01
    endloop
  endfacet
  facet normal 0.000000e+00 -0.000000e+00 1.000000e+00
    outer loop
      vertex   1.154701e+01 -2.000000e+01 8.000000e-01
      vertex   1.154701e+01 2.000000e+01 8.000000e-01
      vertex   -2.309401e+01 1.845058e-14 8.000000e-01
    endloop
  endfacet
  facet normal 0.000000e+00 0.000000e+00 -1.000000e+00
    outer loop
      vertex   1.154701e+01 2.000000e+01 0.000000e+00
      vertex   1.154701e+01 -2.000000e+01 0.000000e+00
      vertex   -2.309401e+01 1.692402e-14 0.000000e+00
    endloop
  endfacet
endsolid
